<mxfile host="app.diagrams.net" modified="2023-07-16T14:46:11.182Z" agent="Mozilla/5.0 (Windows NT 10.0; Win64; x64) AppleWebKit/537.36 (KHTML, like Gecko) Chrome/114.0.0.0 Safari/537.36" etag="3oIJ_7Qk4P3Mko9hdN6c" version="21.6.2" type="github">
  <diagram id="C5RBs43oDa-KdzZeNtuy" name="Page-1">
    <mxGraphModel dx="3532" dy="2147" grid="1" gridSize="10" guides="1" tooltips="1" connect="1" arrows="1" fold="1" page="1" pageScale="1" pageWidth="827" pageHeight="1169" math="0" shadow="0">
      <root>
        <mxCell id="WIyWlLk6GJQsqaUBKTNV-0" />
        <mxCell id="WIyWlLk6GJQsqaUBKTNV-1" parent="WIyWlLk6GJQsqaUBKTNV-0" />
        <mxCell id="7h8urNXvSVrlIbzpcXAR-0" value="&lt;b style=&quot;font-size: 14px;&quot;&gt;MSE Player&lt;br style=&quot;font-size: 14px;&quot;&gt;Canvas Player&lt;/b&gt;" style="rounded=0;whiteSpace=wrap;html=1;fontSize=14;" vertex="1" parent="WIyWlLk6GJQsqaUBKTNV-1">
          <mxGeometry x="-660" y="-180" width="1160" height="120" as="geometry" />
        </mxCell>
        <mxCell id="7h8urNXvSVrlIbzpcXAR-54" value="" style="edgeStyle=orthogonalEdgeStyle;rounded=0;orthogonalLoop=1;jettySize=auto;html=1;" edge="1" parent="WIyWlLk6GJQsqaUBKTNV-1" source="7h8urNXvSVrlIbzpcXAR-1" target="7h8urNXvSVrlIbzpcXAR-0">
          <mxGeometry relative="1" as="geometry">
            <Array as="points">
              <mxPoint x="-90" y="-40" />
              <mxPoint x="-90" y="-40" />
            </Array>
          </mxGeometry>
        </mxCell>
        <mxCell id="7h8urNXvSVrlIbzpcXAR-1" value="&lt;b style=&quot;font-size: 14px;&quot;&gt;MSE Controller&lt;/b&gt;" style="rounded=0;whiteSpace=wrap;html=1;fontSize=14;" vertex="1" parent="WIyWlLk6GJQsqaUBKTNV-1">
          <mxGeometry x="-170" y="-20" width="160" height="80" as="geometry" />
        </mxCell>
        <mxCell id="7h8urNXvSVrlIbzpcXAR-2" value="&lt;b style=&quot;font-size: 14px;&quot;&gt;TransMuxer&lt;/b&gt;" style="rounded=0;whiteSpace=wrap;html=1;fontSize=14;" vertex="1" parent="WIyWlLk6GJQsqaUBKTNV-1">
          <mxGeometry x="110" y="-20" width="180" height="180" as="geometry" />
        </mxCell>
        <mxCell id="7h8urNXvSVrlIbzpcXAR-56" style="edgeStyle=orthogonalEdgeStyle;rounded=0;orthogonalLoop=1;jettySize=auto;html=1;entryX=0.385;entryY=0.987;entryDx=0;entryDy=0;entryPerimeter=0;" edge="1" parent="WIyWlLk6GJQsqaUBKTNV-1">
          <mxGeometry relative="1" as="geometry">
            <mxPoint x="-190.00000000000009" y="-60.00000000000017" as="targetPoint" />
            <mxPoint x="-71.1" y="121.56" as="sourcePoint" />
            <Array as="points">
              <mxPoint x="-190.1" y="121.56" />
            </Array>
          </mxGeometry>
        </mxCell>
        <mxCell id="7h8urNXvSVrlIbzpcXAR-3" value="&lt;b style=&quot;font-size: 14px;&quot;&gt;Canvas Render Controller&lt;/b&gt;" style="rounded=0;whiteSpace=wrap;html=1;fontSize=14;" vertex="1" parent="WIyWlLk6GJQsqaUBKTNV-1">
          <mxGeometry x="-170" y="80" width="160" height="80" as="geometry" />
        </mxCell>
        <mxCell id="7h8urNXvSVrlIbzpcXAR-5" value="&lt;b style=&quot;font-size: 14px;&quot;&gt;Dumxer&lt;/b&gt;" style="rounded=0;whiteSpace=wrap;html=1;fontSize=14;fillColor=#fff2cc;strokeColor=#d6b656;" vertex="1" parent="WIyWlLk6GJQsqaUBKTNV-1">
          <mxGeometry x="-170" y="290" width="160" height="160" as="geometry" />
        </mxCell>
        <mxCell id="7h8urNXvSVrlIbzpcXAR-7" value="&lt;b style=&quot;font-size: 14px;&quot;&gt;Remuxer&lt;/b&gt;" style="rounded=0;whiteSpace=wrap;html=1;fontSize=14;fillColor=#fff2cc;strokeColor=#d6b656;" vertex="1" parent="WIyWlLk6GJQsqaUBKTNV-1">
          <mxGeometry x="110" y="400" width="180" height="50" as="geometry" />
        </mxCell>
        <mxCell id="7h8urNXvSVrlIbzpcXAR-29" value="" style="edgeStyle=orthogonalEdgeStyle;rounded=0;orthogonalLoop=1;jettySize=auto;html=1;fontSize=14;entryX=0.25;entryY=1;entryDx=0;entryDy=0;" edge="1" parent="WIyWlLk6GJQsqaUBKTNV-1" source="7h8urNXvSVrlIbzpcXAR-8" target="7h8urNXvSVrlIbzpcXAR-73">
          <mxGeometry relative="1" as="geometry">
            <Array as="points">
              <mxPoint x="395" y="310" />
            </Array>
          </mxGeometry>
        </mxCell>
        <mxCell id="7h8urNXvSVrlIbzpcXAR-68" value="AV Frame" style="edgeLabel;html=1;align=center;verticalAlign=middle;resizable=0;points=[];" vertex="1" connectable="0" parent="7h8urNXvSVrlIbzpcXAR-29">
          <mxGeometry x="0.0333" y="4" relative="1" as="geometry">
            <mxPoint y="1" as="offset" />
          </mxGeometry>
        </mxCell>
        <mxCell id="7h8urNXvSVrlIbzpcXAR-8" value="&lt;b style=&quot;font-size: 14px;&quot;&gt;Decoder&lt;/b&gt;" style="rounded=0;whiteSpace=wrap;html=1;fontSize=14;fillColor=#fff2cc;strokeColor=#d6b656;" vertex="1" parent="WIyWlLk6GJQsqaUBKTNV-1">
          <mxGeometry x="110" y="290" width="180" height="50" as="geometry" />
        </mxCell>
        <mxCell id="7h8urNXvSVrlIbzpcXAR-11" value="&lt;b style=&quot;font-size: 14px;&quot;&gt;Video&lt;/b&gt;" style="rounded=0;whiteSpace=wrap;html=1;fontSize=14;" vertex="1" parent="WIyWlLk6GJQsqaUBKTNV-1">
          <mxGeometry x="-660" y="-20" width="260" height="60" as="geometry" />
        </mxCell>
        <mxCell id="7h8urNXvSVrlIbzpcXAR-12" value="&lt;b style=&quot;font-size: 14px;&quot;&gt;Canvas&lt;/b&gt;" style="rounded=0;whiteSpace=wrap;html=1;fontSize=14;" vertex="1" parent="WIyWlLk6GJQsqaUBKTNV-1">
          <mxGeometry x="-660" y="80" width="260" height="30" as="geometry" />
        </mxCell>
        <mxCell id="7h8urNXvSVrlIbzpcXAR-13" value="&lt;b style=&quot;font-size: 14px;&quot;&gt;AudioBufferSourceNode&lt;/b&gt;" style="rounded=0;whiteSpace=wrap;html=1;fontSize=14;" vertex="1" parent="WIyWlLk6GJQsqaUBKTNV-1">
          <mxGeometry x="-660" y="130" width="260" height="30" as="geometry" />
        </mxCell>
        <mxCell id="7h8urNXvSVrlIbzpcXAR-18" style="edgeStyle=orthogonalEdgeStyle;rounded=0;orthogonalLoop=1;jettySize=auto;html=1;exitX=1;exitY=0.5;exitDx=0;exitDy=0;entryX=0;entryY=0.5;entryDx=0;entryDy=0;fontSize=14;" edge="1" parent="WIyWlLk6GJQsqaUBKTNV-1" source="7h8urNXvSVrlIbzpcXAR-14" target="7h8urNXvSVrlIbzpcXAR-15">
          <mxGeometry relative="1" as="geometry" />
        </mxCell>
        <mxCell id="7h8urNXvSVrlIbzpcXAR-69" value="Buffer" style="edgeLabel;html=1;align=center;verticalAlign=middle;resizable=0;points=[];" vertex="1" connectable="0" parent="7h8urNXvSVrlIbzpcXAR-18">
          <mxGeometry x="-0.0462" y="-1" relative="1" as="geometry">
            <mxPoint as="offset" />
          </mxGeometry>
        </mxCell>
        <mxCell id="7h8urNXvSVrlIbzpcXAR-14" value="&lt;font style=&quot;font-size: 12px;&quot;&gt;&lt;b style=&quot;font-size: 14px;&quot;&gt;IO Loaders&lt;/b&gt;&lt;br style=&quot;font-size: 14px;&quot;&gt;&lt;font style=&quot;font-size: 12px;&quot;&gt;FetchLoader&lt;br style=&quot;&quot;&gt;XHRLoade&lt;/font&gt;r&lt;/font&gt;" style="rounded=0;whiteSpace=wrap;html=1;fontSize=14;fillColor=#fff2cc;strokeColor=#d6b656;" vertex="1" parent="WIyWlLk6GJQsqaUBKTNV-1">
          <mxGeometry x="-660" y="290" width="160" height="160" as="geometry" />
        </mxCell>
        <mxCell id="7h8urNXvSVrlIbzpcXAR-19" style="edgeStyle=orthogonalEdgeStyle;rounded=0;orthogonalLoop=1;jettySize=auto;html=1;exitX=1;exitY=0.5;exitDx=0;exitDy=0;entryX=0;entryY=0.5;entryDx=0;entryDy=0;fontSize=14;" edge="1" parent="WIyWlLk6GJQsqaUBKTNV-1" source="7h8urNXvSVrlIbzpcXAR-15" target="7h8urNXvSVrlIbzpcXAR-5">
          <mxGeometry relative="1" as="geometry" />
        </mxCell>
        <mxCell id="7h8urNXvSVrlIbzpcXAR-70" value="Buffer" style="edgeLabel;html=1;align=center;verticalAlign=middle;resizable=0;points=[];" vertex="1" connectable="0" parent="7h8urNXvSVrlIbzpcXAR-19">
          <mxGeometry x="0.0419" y="6" relative="1" as="geometry">
            <mxPoint y="6" as="offset" />
          </mxGeometry>
        </mxCell>
        <mxCell id="7h8urNXvSVrlIbzpcXAR-15" value="&lt;b style=&quot;font-size: 14px;&quot;&gt;IO Controller&lt;/b&gt;" style="rounded=0;whiteSpace=wrap;html=1;fontSize=14;fillColor=#fff2cc;strokeColor=#d6b656;" vertex="1" parent="WIyWlLk6GJQsqaUBKTNV-1">
          <mxGeometry x="-413.5" y="290" width="160" height="160" as="geometry" />
        </mxCell>
        <mxCell id="7h8urNXvSVrlIbzpcXAR-22" value="" style="endArrow=classic;html=1;rounded=0;entryX=0;entryY=0.5;entryDx=0;entryDy=0;exitX=1.008;exitY=0.156;exitDx=0;exitDy=0;exitPerimeter=0;fontSize=14;" edge="1" parent="WIyWlLk6GJQsqaUBKTNV-1" source="7h8urNXvSVrlIbzpcXAR-5" target="7h8urNXvSVrlIbzpcXAR-8">
          <mxGeometry width="50" height="50" relative="1" as="geometry">
            <mxPoint x="30" y="340" as="sourcePoint" />
            <mxPoint x="80" y="290" as="targetPoint" />
          </mxGeometry>
        </mxCell>
        <mxCell id="7h8urNXvSVrlIbzpcXAR-67" value="AVPacket" style="edgeLabel;html=1;align=center;verticalAlign=middle;resizable=0;points=[];" vertex="1" connectable="0" parent="7h8urNXvSVrlIbzpcXAR-22">
          <mxGeometry x="-0.2151" y="3" relative="1" as="geometry">
            <mxPoint x="13" y="3" as="offset" />
          </mxGeometry>
        </mxCell>
        <mxCell id="7h8urNXvSVrlIbzpcXAR-27" value="" style="endArrow=classic;html=1;rounded=0;entryX=0;entryY=0.5;entryDx=0;entryDy=0;exitX=1.017;exitY=0.844;exitDx=0;exitDy=0;exitPerimeter=0;fontSize=14;" edge="1" parent="WIyWlLk6GJQsqaUBKTNV-1" source="7h8urNXvSVrlIbzpcXAR-5" target="7h8urNXvSVrlIbzpcXAR-7">
          <mxGeometry width="50" height="50" relative="1" as="geometry">
            <mxPoint x="40" y="440" as="sourcePoint" />
            <mxPoint x="90" y="390" as="targetPoint" />
          </mxGeometry>
        </mxCell>
        <mxCell id="7h8urNXvSVrlIbzpcXAR-28" value="" style="endArrow=classic;html=1;rounded=0;entryX=0.571;entryY=1.015;entryDx=0;entryDy=0;fontSize=14;exitX=1;exitY=0.5;exitDx=0;exitDy=0;entryPerimeter=0;" edge="1" parent="WIyWlLk6GJQsqaUBKTNV-1" source="7h8urNXvSVrlIbzpcXAR-7" target="7h8urNXvSVrlIbzpcXAR-73">
          <mxGeometry width="50" height="50" relative="1" as="geometry">
            <mxPoint x="290" y="330" as="sourcePoint" />
            <mxPoint x="400" y="330" as="targetPoint" />
            <Array as="points">
              <mxPoint x="390" y="425" />
              <mxPoint x="440" y="425" />
              <mxPoint x="440" y="200" />
            </Array>
          </mxGeometry>
        </mxCell>
        <mxCell id="7h8urNXvSVrlIbzpcXAR-33" value="" style="endArrow=classic;html=1;rounded=0;entryX=1;entryY=0.5;entryDx=0;entryDy=0;fontSize=14;" edge="1" parent="WIyWlLk6GJQsqaUBKTNV-1" target="7h8urNXvSVrlIbzpcXAR-3">
          <mxGeometry width="50" height="50" relative="1" as="geometry">
            <mxPoint x="110" y="120" as="sourcePoint" />
            <mxPoint x="120" y="220" as="targetPoint" />
          </mxGeometry>
        </mxCell>
        <mxCell id="7h8urNXvSVrlIbzpcXAR-65" value="AVFrame&lt;br&gt;" style="edgeLabel;html=1;align=center;verticalAlign=middle;resizable=0;points=[];" vertex="1" connectable="0" parent="7h8urNXvSVrlIbzpcXAR-33">
          <mxGeometry x="0.0857" y="2" relative="1" as="geometry">
            <mxPoint x="-1" as="offset" />
          </mxGeometry>
        </mxCell>
        <mxCell id="7h8urNXvSVrlIbzpcXAR-34" value="" style="endArrow=classic;html=1;rounded=0;fontSize=14;exitX=0.006;exitY=0.186;exitDx=0;exitDy=0;exitPerimeter=0;entryX=1;entryY=0.413;entryDx=0;entryDy=0;entryPerimeter=0;" edge="1" parent="WIyWlLk6GJQsqaUBKTNV-1" source="7h8urNXvSVrlIbzpcXAR-2" target="7h8urNXvSVrlIbzpcXAR-1">
          <mxGeometry width="50" height="50" relative="1" as="geometry">
            <mxPoint x="110" y="30" as="sourcePoint" />
            <mxPoint x="50" y="13" as="targetPoint" />
          </mxGeometry>
        </mxCell>
        <mxCell id="7h8urNXvSVrlIbzpcXAR-66" value="Media Segement" style="edgeLabel;html=1;align=center;verticalAlign=middle;resizable=0;points=[];" vertex="1" connectable="0" parent="7h8urNXvSVrlIbzpcXAR-34">
          <mxGeometry x="0.2652" y="-4" relative="1" as="geometry">
            <mxPoint x="15" y="1" as="offset" />
          </mxGeometry>
        </mxCell>
        <mxCell id="7h8urNXvSVrlIbzpcXAR-37" value="" style="endArrow=classic;html=1;rounded=0;entryX=1;entryY=0.5;entryDx=0;entryDy=0;exitX=0.004;exitY=0.379;exitDx=0;exitDy=0;exitPerimeter=0;fontSize=14;" edge="1" parent="WIyWlLk6GJQsqaUBKTNV-1" source="7h8urNXvSVrlIbzpcXAR-1" target="7h8urNXvSVrlIbzpcXAR-11">
          <mxGeometry width="50" height="50" relative="1" as="geometry">
            <mxPoint x="-170" y="40" as="sourcePoint" />
            <mxPoint x="-120" y="-10" as="targetPoint" />
          </mxGeometry>
        </mxCell>
        <mxCell id="7h8urNXvSVrlIbzpcXAR-64" value="Media Source Extensions" style="edgeLabel;html=1;align=center;verticalAlign=middle;resizable=0;points=[];" vertex="1" connectable="0" parent="7h8urNXvSVrlIbzpcXAR-37">
          <mxGeometry x="0.1128" y="-2" relative="1" as="geometry">
            <mxPoint as="offset" />
          </mxGeometry>
        </mxCell>
        <mxCell id="7h8urNXvSVrlIbzpcXAR-38" value="" style="endArrow=classic;html=1;rounded=0;entryX=1;entryY=0.5;entryDx=0;entryDy=0;exitX=-0.004;exitY=0.178;exitDx=0;exitDy=0;exitPerimeter=0;fontSize=14;" edge="1" parent="WIyWlLk6GJQsqaUBKTNV-1" source="7h8urNXvSVrlIbzpcXAR-3" target="7h8urNXvSVrlIbzpcXAR-12">
          <mxGeometry width="50" height="50" relative="1" as="geometry">
            <mxPoint y="230" as="sourcePoint" />
            <mxPoint x="50" y="180" as="targetPoint" />
          </mxGeometry>
        </mxCell>
        <mxCell id="7h8urNXvSVrlIbzpcXAR-61" value="CanvasRenderingContext" style="edgeLabel;html=1;align=center;verticalAlign=middle;resizable=0;points=[];" vertex="1" connectable="0" parent="7h8urNXvSVrlIbzpcXAR-38">
          <mxGeometry x="0.1444" y="-3" relative="1" as="geometry">
            <mxPoint as="offset" />
          </mxGeometry>
        </mxCell>
        <mxCell id="7h8urNXvSVrlIbzpcXAR-39" value="" style="endArrow=classic;html=1;rounded=0;entryX=1;entryY=0.5;entryDx=0;entryDy=0;fontSize=14;" edge="1" parent="WIyWlLk6GJQsqaUBKTNV-1" target="7h8urNXvSVrlIbzpcXAR-13">
          <mxGeometry width="50" height="50" relative="1" as="geometry">
            <mxPoint x="-170" y="145" as="sourcePoint" />
            <mxPoint x="-190" y="145.5" as="targetPoint" />
          </mxGeometry>
        </mxCell>
        <mxCell id="7h8urNXvSVrlIbzpcXAR-60" value="Audio Context&lt;br&gt;" style="edgeLabel;html=1;align=center;verticalAlign=middle;resizable=0;points=[];" vertex="1" connectable="0" parent="7h8urNXvSVrlIbzpcXAR-39">
          <mxGeometry x="0.1075" y="-3" relative="1" as="geometry">
            <mxPoint x="1" as="offset" />
          </mxGeometry>
        </mxCell>
        <mxCell id="7h8urNXvSVrlIbzpcXAR-41" value="" style="endArrow=classic;html=1;rounded=0;exitX=0.5;exitY=0;exitDx=0;exitDy=0;" edge="1" parent="WIyWlLk6GJQsqaUBKTNV-1" source="7h8urNXvSVrlIbzpcXAR-2">
          <mxGeometry width="50" height="50" relative="1" as="geometry">
            <mxPoint x="175" y="-20" as="sourcePoint" />
            <mxPoint x="200" y="-57" as="targetPoint" />
          </mxGeometry>
        </mxCell>
        <mxCell id="7h8urNXvSVrlIbzpcXAR-58" value="Web Worker" style="rounded=0;whiteSpace=wrap;html=1;fillColor=#fff2cc;strokeColor=#d6b656;" vertex="1" parent="WIyWlLk6GJQsqaUBKTNV-1">
          <mxGeometry x="-880" y="110" width="100" height="40" as="geometry" />
        </mxCell>
        <mxCell id="7h8urNXvSVrlIbzpcXAR-74" value="" style="edgeStyle=orthogonalEdgeStyle;rounded=0;orthogonalLoop=1;jettySize=auto;html=1;" edge="1" parent="WIyWlLk6GJQsqaUBKTNV-1" source="7h8urNXvSVrlIbzpcXAR-73" target="7h8urNXvSVrlIbzpcXAR-2">
          <mxGeometry relative="1" as="geometry" />
        </mxCell>
        <mxCell id="7h8urNXvSVrlIbzpcXAR-73" value="Worker Manager" style="rounded=0;whiteSpace=wrap;html=1;fontStyle=1;fontSize=14;" vertex="1" parent="WIyWlLk6GJQsqaUBKTNV-1">
          <mxGeometry x="360" y="-20" width="140" height="180" as="geometry" />
        </mxCell>
      </root>
    </mxGraphModel>
  </diagram>
</mxfile>
